<mxfile host="app.diagrams.net" modified="2020-09-22T00:48:43.161Z" agent="5.0 (Windows NT 10.0; Win64; x64) AppleWebKit/537.36 (KHTML, like Gecko) Chrome/85.0.4183.102 Safari/537.36" etag="nfHvAXDat3oygf5G_bFe" version="13.7.3" type="github">
  <diagram name="Page-1" id="099fd60b-425b-db50-ffb0-6b813814b670">
    <mxGraphModel dx="1021" dy="521" grid="1" gridSize="10" guides="1" tooltips="1" connect="1" arrows="1" fold="1" page="1" pageScale="1" pageWidth="1100" pageHeight="850" background="#ffffff" math="0" shadow="0">
      <root>
        <mxCell id="0" />
        <mxCell id="1" parent="0" />
        <mxCell id="_vKqTybW77CB6x3eWFXq-1" value="" style="shape=mxgraph.pid.pumps.centrifugal_pump_1;html=1;pointerEvents=1;align=center;verticalLabelPosition=bottom;verticalAlign=top;dashed=0;" vertex="1" parent="1">
          <mxGeometry x="310" y="183" width="70" height="67" as="geometry" />
        </mxCell>
        <mxCell id="_vKqTybW77CB6x3eWFXq-2" value="" style="shape=mxgraph.pid.pumps.centrifugal_pump_1;html=1;pointerEvents=1;align=center;verticalLabelPosition=bottom;verticalAlign=top;dashed=0;" vertex="1" parent="1">
          <mxGeometry x="60" y="230" width="70" height="67" as="geometry" />
        </mxCell>
        <mxCell id="_vKqTybW77CB6x3eWFXq-3" value="" style="verticalLabelPosition=bottom;align=center;html=1;verticalAlign=top;pointerEvents=1;dashed=0;shape=mxgraph.pid2valves.valve;valveType=gate;actuator=diaph" vertex="1" parent="1">
          <mxGeometry x="420" y="350" width="30" height="30" as="geometry" />
        </mxCell>
        <mxCell id="_vKqTybW77CB6x3eWFXq-4" value="" style="verticalLabelPosition=bottom;outlineConnect=0;align=center;dashed=0;html=1;verticalAlign=top;shape=mxgraph.pid2misc.column;columnType=common;rotation=90;" vertex="1" parent="1">
          <mxGeometry x="595" y="70" width="50" height="180" as="geometry" />
        </mxCell>
        <mxCell id="_vKqTybW77CB6x3eWFXq-5" value="" style="verticalLabelPosition=bottom;outlineConnect=0;align=center;dashed=0;html=1;verticalAlign=top;shape=mxgraph.pid.misc.cooling_tower_(dry,_natural_draught);" vertex="1" parent="1">
          <mxGeometry x="790" y="50" width="100" height="120" as="geometry" />
        </mxCell>
        <mxCell id="_vKqTybW77CB6x3eWFXq-7" value="" style="shape=mxgraph.pid.heat_exchangers.condenser;html=1;pointerEvents=1;align=center;verticalLabelPosition=bottom;verticalAlign=top;dashed=0;" vertex="1" parent="1">
          <mxGeometry x="200" y="530" width="80" height="80" as="geometry" />
        </mxCell>
        <mxCell id="_vKqTybW77CB6x3eWFXq-9" value="" style="verticalLabelPosition=bottom;outlineConnect=0;align=center;dashed=0;html=1;verticalAlign=top;shape=mxgraph.pid2misc.column;columnType=common" vertex="1" parent="1">
          <mxGeometry x="310" y="310" width="50" height="120" as="geometry" />
        </mxCell>
        <mxCell id="_vKqTybW77CB6x3eWFXq-10" value="" style="endArrow=classic;html=1;exitX=1;exitY=0.92;exitDx=0;exitDy=0;exitPerimeter=0;" edge="1" parent="1" source="_vKqTybW77CB6x3eWFXq-5" target="_vKqTybW77CB6x3eWFXq-4">
          <mxGeometry width="50" height="50" relative="1" as="geometry">
            <mxPoint x="700" y="360" as="sourcePoint" />
            <mxPoint x="805" y="166" as="targetPoint" />
          </mxGeometry>
        </mxCell>
        <mxCell id="_vKqTybW77CB6x3eWFXq-11" value="" style="endArrow=classic;html=1;exitX=1;exitY=0;exitDx=0;exitDy=0;exitPerimeter=0;entryX=0.5;entryY=0;entryDx=0;entryDy=0;entryPerimeter=0;" edge="1" parent="1" source="_vKqTybW77CB6x3eWFXq-1" target="_vKqTybW77CB6x3eWFXq-5">
          <mxGeometry width="50" height="50" relative="1" as="geometry">
            <mxPoint x="660" y="170.39999999999998" as="sourcePoint" />
            <mxPoint x="800" y="170" as="targetPoint" />
            <Array as="points">
              <mxPoint x="380" y="30" />
              <mxPoint x="840" y="30" />
            </Array>
          </mxGeometry>
        </mxCell>
        <mxCell id="_vKqTybW77CB6x3eWFXq-12" value="" style="endArrow=classic;html=1;snapToPoint=0;entryX=1.045;entryY=0.751;entryDx=0;entryDy=0;entryPerimeter=0;" edge="1" parent="1" source="_vKqTybW77CB6x3eWFXq-4" target="_vKqTybW77CB6x3eWFXq-3">
          <mxGeometry width="50" height="50" relative="1" as="geometry">
            <mxPoint x="660" y="170.39999999999998" as="sourcePoint" />
            <mxPoint x="743" y="328" as="targetPoint" />
            <Array as="points">
              <mxPoint x="620" y="230" />
              <mxPoint x="480" y="230" />
              <mxPoint x="480" y="373" />
            </Array>
          </mxGeometry>
        </mxCell>
        <mxCell id="_vKqTybW77CB6x3eWFXq-17" value="" style="endArrow=none;dashed=1;html=1;exitX=1;exitY=0.5;exitDx=0;exitDy=0;entryX=0.516;entryY=0.006;entryDx=0;entryDy=0;entryPerimeter=0;" edge="1" parent="1" source="_vKqTybW77CB6x3eWFXq-19" target="_vKqTybW77CB6x3eWFXq-3">
          <mxGeometry width="50" height="50" relative="1" as="geometry">
            <mxPoint x="370" y="370" as="sourcePoint" />
            <mxPoint x="270" y="280" as="targetPoint" />
            <Array as="points">
              <mxPoint x="435" y="335" />
            </Array>
          </mxGeometry>
        </mxCell>
        <mxCell id="_vKqTybW77CB6x3eWFXq-19" value="LC&lt;br&gt; " style="html=1;outlineConnect=0;align=center;dashed=0;aspect=fixed;shape=mxgraph.pid2inst.discInst;mounting=field" vertex="1" parent="1">
          <mxGeometry x="360" y="320" width="30" height="30" as="geometry" />
        </mxCell>
        <mxCell id="_vKqTybW77CB6x3eWFXq-22" value="" style="endArrow=classic;html=1;fixDash=1;exitX=-0.073;exitY=0.604;exitDx=0;exitDy=0;exitPerimeter=0;snapToPoint=0;" edge="1" parent="1" source="_vKqTybW77CB6x3eWFXq-3" target="_vKqTybW77CB6x3eWFXq-9">
          <mxGeometry width="50" height="50" relative="1" as="geometry">
            <mxPoint x="430" y="380" as="sourcePoint" />
            <mxPoint x="410" y="460" as="targetPoint" />
          </mxGeometry>
        </mxCell>
        <mxCell id="_vKqTybW77CB6x3eWFXq-25" value="" style="endArrow=classic;html=1;entryX=0.01;entryY=0.5;entryDx=0;entryDy=0;entryPerimeter=0;" edge="1" parent="1" target="_vKqTybW77CB6x3eWFXq-1">
          <mxGeometry width="50" height="50" relative="1" as="geometry">
            <mxPoint x="340" y="310" as="sourcePoint" />
            <mxPoint x="805" y="310.001176470588" as="targetPoint" />
            <Array as="points">
              <mxPoint x="220" y="310" />
              <mxPoint x="220" y="217" />
            </Array>
          </mxGeometry>
        </mxCell>
        <mxCell id="_vKqTybW77CB6x3eWFXq-28" value="" style="shape=mxgraph.pid.pumps.centrifugal_pump_1;html=1;pointerEvents=1;align=center;verticalLabelPosition=bottom;verticalAlign=top;dashed=0;" vertex="1" parent="1">
          <mxGeometry x="420" y="450" width="50" height="40" as="geometry" />
        </mxCell>
        <mxCell id="_vKqTybW77CB6x3eWFXq-29" value="" style="endArrow=classic;html=1;fixDash=1;snapToPoint=0;exitX=0.5;exitY=1.011;exitDx=0;exitDy=0;exitPerimeter=0;entryX=0.01;entryY=0.5;entryDx=0;entryDy=0;entryPerimeter=0;" edge="1" parent="1" source="_vKqTybW77CB6x3eWFXq-9" target="_vKqTybW77CB6x3eWFXq-28">
          <mxGeometry width="50" height="50" relative="1" as="geometry">
            <mxPoint x="307.80999999999995" y="430.0000000000001" as="sourcePoint" />
            <mxPoint x="250" y="431.312435696172" as="targetPoint" />
            <Array as="points">
              <mxPoint x="335" y="470" />
            </Array>
          </mxGeometry>
        </mxCell>
        <mxCell id="_vKqTybW77CB6x3eWFXq-30" value="" style="endArrow=classic;html=1;fixDash=1;exitX=1;exitY=0;exitDx=0;exitDy=0;exitPerimeter=0;snapToPoint=0;entryX=0.876;entryY=0.5;entryDx=0;entryDy=0;entryPerimeter=0;" edge="1" parent="1" source="_vKqTybW77CB6x3eWFXq-28" target="_vKqTybW77CB6x3eWFXq-7">
          <mxGeometry width="50" height="50" relative="1" as="geometry">
            <mxPoint x="577.81" y="510.0000000000001" as="sourcePoint" />
            <mxPoint x="520" y="511.312435696172" as="targetPoint" />
            <Array as="points">
              <mxPoint x="520" y="450" />
              <mxPoint x="520" y="510" />
              <mxPoint x="520" y="570" />
            </Array>
          </mxGeometry>
        </mxCell>
        <mxCell id="_vKqTybW77CB6x3eWFXq-32" value="" style="endArrow=classic;html=1;fixDash=1;exitX=0.5;exitY=0.124;exitDx=0;exitDy=0;exitPerimeter=0;snapToPoint=0;" edge="1" parent="1" source="_vKqTybW77CB6x3eWFXq-33" target="_vKqTybW77CB6x3eWFXq-9">
          <mxGeometry width="50" height="50" relative="1" as="geometry">
            <mxPoint x="427.80999999999995" y="378.1200000000001" as="sourcePoint" />
            <mxPoint x="260" y="360" as="targetPoint" />
            <Array as="points">
              <mxPoint x="240" y="368" />
            </Array>
          </mxGeometry>
        </mxCell>
        <mxCell id="_vKqTybW77CB6x3eWFXq-33" value="" style="verticalLabelPosition=bottom;align=center;html=1;verticalAlign=top;pointerEvents=1;dashed=0;shape=mxgraph.pid2valves.valve;valveType=gate;actuator=diaph" vertex="1" parent="1">
          <mxGeometry x="225" y="460" width="30" height="30" as="geometry" />
        </mxCell>
        <mxCell id="_vKqTybW77CB6x3eWFXq-34" value="" style="endArrow=classic;html=1;fixDash=1;exitX=0.5;exitY=0.124;exitDx=0;exitDy=0;exitPerimeter=0;snapToPoint=0;" edge="1" parent="1" source="_vKqTybW77CB6x3eWFXq-7" target="_vKqTybW77CB6x3eWFXq-33">
          <mxGeometry width="50" height="50" relative="1" as="geometry">
            <mxPoint x="240" y="539.9200000000001" as="sourcePoint" />
            <mxPoint x="310" y="369.47368421052636" as="targetPoint" />
            <Array as="points" />
          </mxGeometry>
        </mxCell>
        <mxCell id="_vKqTybW77CB6x3eWFXq-35" value="" style="endArrow=classic;html=1;snapToPoint=0;" edge="1" parent="1" source="_vKqTybW77CB6x3eWFXq-4">
          <mxGeometry width="50" height="50" relative="1" as="geometry">
            <mxPoint x="915.586854460094" y="194.9999999999999" as="sourcePoint" />
            <mxPoint x="720" y="355" as="targetPoint" />
            <Array as="points">
              <mxPoint x="620" y="230" />
              <mxPoint x="620" y="355" />
            </Array>
          </mxGeometry>
        </mxCell>
        <mxCell id="_vKqTybW77CB6x3eWFXq-36" value="" style="verticalLabelPosition=bottom;align=center;html=1;verticalAlign=top;pointerEvents=1;dashed=0;shape=mxgraph.pid2valves.valve;valveType=gate;actuator=diaph" vertex="1" parent="1">
          <mxGeometry x="720" y="340" width="30" height="30" as="geometry" />
        </mxCell>
        <mxCell id="_vKqTybW77CB6x3eWFXq-37" value="" style="verticalLabelPosition=bottom;outlineConnect=0;align=center;dashed=0;html=1;verticalAlign=top;shape=mxgraph.pid2misc.column;columnType=common" vertex="1" parent="1">
          <mxGeometry x="809" y="290" width="70" height="130" as="geometry" />
        </mxCell>
        <mxCell id="_vKqTybW77CB6x3eWFXq-38" value="" style="endArrow=none;dashed=1;html=1;exitX=1;exitY=0.5;exitDx=0;exitDy=0;entryX=0.516;entryY=0.006;entryDx=0;entryDy=0;entryPerimeter=0;" edge="1" parent="1" source="_vKqTybW77CB6x3eWFXq-39" target="_vKqTybW77CB6x3eWFXq-36">
          <mxGeometry width="50" height="50" relative="1" as="geometry">
            <mxPoint x="880" y="360" as="sourcePoint" />
            <mxPoint x="780" y="270" as="targetPoint" />
            <Array as="points">
              <mxPoint x="735" y="325" />
            </Array>
          </mxGeometry>
        </mxCell>
        <mxCell id="_vKqTybW77CB6x3eWFXq-39" value="LC&lt;br&gt; " style="html=1;outlineConnect=0;align=center;dashed=0;aspect=fixed;shape=mxgraph.pid2inst.discInst;mounting=field" vertex="1" parent="1">
          <mxGeometry x="779" y="310" width="30" height="30" as="geometry" />
        </mxCell>
        <mxCell id="_vKqTybW77CB6x3eWFXq-40" value="" style="endArrow=classic;html=1;fixDash=1;snapToPoint=0;" edge="1" parent="1" target="_vKqTybW77CB6x3eWFXq-37">
          <mxGeometry width="50" height="50" relative="1" as="geometry">
            <mxPoint x="750" y="356" as="sourcePoint" />
            <mxPoint x="920" y="450" as="targetPoint" />
          </mxGeometry>
        </mxCell>
        <mxCell id="_vKqTybW77CB6x3eWFXq-49" value="" style="shape=mxgraph.pid.pumps.centrifugal_pump_1;html=1;pointerEvents=1;align=center;verticalLabelPosition=bottom;verticalAlign=top;dashed=0;direction=east;autosize=0;" vertex="1" parent="1">
          <mxGeometry x="700" y="460" width="50" height="40" as="geometry" />
        </mxCell>
        <mxCell id="_vKqTybW77CB6x3eWFXq-50" value="" style="endArrow=classic;html=1;fixDash=1;snapToPoint=0;exitX=0.5;exitY=1.011;exitDx=0;exitDy=0;exitPerimeter=0;entryX=0.01;entryY=0.5;entryDx=0;entryDy=0;entryPerimeter=0;" edge="1" parent="1" target="_vKqTybW77CB6x3eWFXq-49">
          <mxGeometry width="50" height="50" relative="1" as="geometry">
            <mxPoint x="840" y="419.99999999999994" as="sourcePoint" />
            <mxPoint x="910" y="459" as="targetPoint" />
            <Array as="points">
              <mxPoint x="840" y="440" />
              <mxPoint x="650" y="440" />
              <mxPoint x="650" y="480" />
            </Array>
          </mxGeometry>
        </mxCell>
        <mxCell id="_vKqTybW77CB6x3eWFXq-51" value="" style="endArrow=classic;html=1;fixDash=1;exitX=1;exitY=0;exitDx=0;exitDy=0;exitPerimeter=0;snapToPoint=0;entryX=0.124;entryY=0.5;entryDx=0;entryDy=0;entryPerimeter=0;" edge="1" parent="1" target="_vKqTybW77CB6x3eWFXq-54">
          <mxGeometry width="50" height="50" relative="1" as="geometry">
            <mxPoint x="730.0000000000001" y="460" as="sourcePoint" />
            <mxPoint x="780.08" y="814.1771428571429" as="targetPoint" />
            <Array as="points">
              <mxPoint x="780.0000000000001" y="460" />
              <mxPoint x="780.0000000000001" y="520" />
              <mxPoint x="780.0000000000001" y="580" />
              <mxPoint x="780" y="790" />
            </Array>
          </mxGeometry>
        </mxCell>
        <mxCell id="_vKqTybW77CB6x3eWFXq-54" value="" style="shape=mxgraph.pid.heat_exchangers.condenser;html=1;pointerEvents=1;align=center;verticalLabelPosition=bottom;verticalAlign=top;dashed=0;" vertex="1" parent="1">
          <mxGeometry x="820" y="750" width="80" height="80" as="geometry" />
        </mxCell>
        <mxCell id="_vKqTybW77CB6x3eWFXq-55" value="" style="shape=mxgraph.pid.heat_exchangers.condenser;html=1;pointerEvents=1;align=center;verticalLabelPosition=bottom;verticalAlign=top;dashed=0;" vertex="1" parent="1">
          <mxGeometry x="820" y="650" width="80" height="80" as="geometry" />
        </mxCell>
        <mxCell id="_vKqTybW77CB6x3eWFXq-56" value="" style="shape=mxgraph.pid.heat_exchangers.condenser;html=1;pointerEvents=1;align=center;verticalLabelPosition=bottom;verticalAlign=top;dashed=0;" vertex="1" parent="1">
          <mxGeometry x="820" y="540" width="80" height="80" as="geometry" />
        </mxCell>
        <mxCell id="_vKqTybW77CB6x3eWFXq-57" value="" style="endArrow=classic;html=1;fixDash=1;snapToPoint=0;entryX=0.124;entryY=0.5;entryDx=0;entryDy=0;entryPerimeter=0;" edge="1" parent="1" target="_vKqTybW77CB6x3eWFXq-55">
          <mxGeometry width="50" height="50" relative="1" as="geometry">
            <mxPoint x="780" y="690" as="sourcePoint" />
            <mxPoint x="720" y="690.6024356961719" as="targetPoint" />
          </mxGeometry>
        </mxCell>
        <mxCell id="_vKqTybW77CB6x3eWFXq-58" value="" style="endArrow=classic;html=1;fixDash=1;snapToPoint=0;entryX=0.124;entryY=0.5;entryDx=0;entryDy=0;entryPerimeter=0;" edge="1" parent="1">
          <mxGeometry width="50" height="50" relative="1" as="geometry">
            <mxPoint x="780" y="579.76" as="sourcePoint" />
            <mxPoint x="829.9200000000001" y="579.76" as="targetPoint" />
          </mxGeometry>
        </mxCell>
        <mxCell id="_vKqTybW77CB6x3eWFXq-59" value="" style="endArrow=classic;html=1;fixDash=1;snapToPoint=0;entryX=0.124;entryY=0.5;entryDx=0;entryDy=0;entryPerimeter=0;" edge="1" parent="1">
          <mxGeometry width="50" height="50" relative="1" as="geometry">
            <mxPoint x="890" y="690.24" as="sourcePoint" />
            <mxPoint x="939.9200000000001" y="690.24" as="targetPoint" />
          </mxGeometry>
        </mxCell>
        <mxCell id="_vKqTybW77CB6x3eWFXq-60" value="" style="endArrow=classic;html=1;fixDash=1;snapToPoint=0;entryX=0.124;entryY=0.5;entryDx=0;entryDy=0;entryPerimeter=0;" edge="1" parent="1">
          <mxGeometry width="50" height="50" relative="1" as="geometry">
            <mxPoint x="890" y="580" as="sourcePoint" />
            <mxPoint x="939.9200000000001" y="580" as="targetPoint" />
          </mxGeometry>
        </mxCell>
        <mxCell id="_vKqTybW77CB6x3eWFXq-61" value="" style="endArrow=classic;html=1;fixDash=1;exitX=1;exitY=0;exitDx=0;exitDy=0;exitPerimeter=0;snapToPoint=0;" edge="1" parent="1" target="_vKqTybW77CB6x3eWFXq-37">
          <mxGeometry width="50" height="50" relative="1" as="geometry">
            <mxPoint x="890" y="790" as="sourcePoint" />
            <mxPoint x="940" y="488" as="targetPoint" />
            <Array as="points">
              <mxPoint x="940.0000000000001" y="790" />
              <mxPoint x="940" y="355" />
            </Array>
          </mxGeometry>
        </mxCell>
        <mxCell id="_vKqTybW77CB6x3eWFXq-62" value="" style="shape=mxgraph.pid.pumps.centrifugal_pump_1;html=1;pointerEvents=1;align=center;verticalLabelPosition=bottom;verticalAlign=top;dashed=0;" vertex="1" parent="1">
          <mxGeometry x="960" y="243" width="70" height="67" as="geometry" />
        </mxCell>
        <mxCell id="_vKqTybW77CB6x3eWFXq-63" value="" style="endArrow=classic;html=1;fixDash=1;snapToPoint=0;exitX=1;exitY=0;exitDx=0;exitDy=0;exitPerimeter=0;entryX=0.5;entryY=0;entryDx=0;entryDy=0;entryPerimeter=0;" edge="1" parent="1" source="_vKqTybW77CB6x3eWFXq-62" target="_vKqTybW77CB6x3eWFXq-5">
          <mxGeometry width="50" height="50" relative="1" as="geometry">
            <mxPoint x="1030" y="257.1600000000001" as="sourcePoint" />
            <mxPoint x="1115.4999999999998" y="295.84000000000003" as="targetPoint" />
            <Array as="points">
              <mxPoint x="1070" y="243" />
              <mxPoint x="1070" y="30" />
              <mxPoint x="840" y="30" />
            </Array>
          </mxGeometry>
        </mxCell>
        <mxCell id="_vKqTybW77CB6x3eWFXq-64" value="Mycon" style="text;html=1;strokeColor=none;fillColor=none;align=center;verticalAlign=middle;whiteSpace=wrap;rounded=0;fontSize=14;" vertex="1" parent="1">
          <mxGeometry x="975" y="210" width="40" height="20" as="geometry" />
        </mxCell>
        <mxCell id="_vKqTybW77CB6x3eWFXq-67" value="Succao 3 bar" style="text;html=1;strokeColor=none;fillColor=none;align=center;verticalAlign=middle;whiteSpace=wrap;rounded=0;fontSize=14;" vertex="1" parent="1">
          <mxGeometry x="850" y="210" width="60" height="33" as="geometry" />
        </mxCell>
        <mxCell id="_vKqTybW77CB6x3eWFXq-68" value="" style="endArrow=classic;html=1;fontSize=14;entryX=0.125;entryY=0.125;entryDx=0;entryDy=0;entryPerimeter=0;" edge="1" parent="1" source="_vKqTybW77CB6x3eWFXq-37" target="_vKqTybW77CB6x3eWFXq-62">
          <mxGeometry width="50" height="50" relative="1" as="geometry">
            <mxPoint x="690" y="330" as="sourcePoint" />
            <mxPoint x="740" y="280" as="targetPoint" />
            <Array as="points">
              <mxPoint x="840" y="251" />
            </Array>
          </mxGeometry>
        </mxCell>
        <mxCell id="_vKqTybW77CB6x3eWFXq-69" value="Gas&lt;br&gt;Descarga&lt;br&gt;13 bar&lt;br&gt;Quente&lt;br&gt;&amp;gt; 100 C" style="text;html=1;strokeColor=none;fillColor=none;align=center;verticalAlign=middle;whiteSpace=wrap;rounded=0;fontSize=14;" vertex="1" parent="1">
          <mxGeometry x="975" y="73" width="110" height="110" as="geometry" />
        </mxCell>
        <mxCell id="_vKqTybW77CB6x3eWFXq-70" value="Gas&lt;br&gt;Alta Pressao&lt;br&gt;13 bar&lt;br&gt;Quente&lt;br&gt;&amp;gt; 100 C" style="text;html=1;strokeColor=none;fillColor=none;align=center;verticalAlign=middle;whiteSpace=wrap;rounded=0;fontSize=14;" vertex="1" parent="1">
          <mxGeometry x="370" y="40" width="110" height="110" as="geometry" />
        </mxCell>
        <mxCell id="_vKqTybW77CB6x3eWFXq-71" value="Gas Frio" style="text;html=1;strokeColor=none;fillColor=none;align=center;verticalAlign=middle;whiteSpace=wrap;rounded=0;fontSize=14;" vertex="1" parent="1">
          <mxGeometry x="850" y="250" width="60" height="33" as="geometry" />
        </mxCell>
      </root>
    </mxGraphModel>
  </diagram>
</mxfile>
